<svg xmlns="http://www.w3.org/2000/svg" xmlns:xlink="http://www.w3.org/1999/xlink" width="500" zoomAndPan="magnify" viewBox="0 0 375 374.999991" height="500" preserveAspectRatio="xMidYMid meet" version="1.0"><defs><clipPath id="b95ac0bdcd"><path d="M 66 20.171875 L 291 20.171875 L 291 322 L 66 322 Z M 66 20.171875 " clip-rule="nonzero"/></clipPath><clipPath id="2631608d0f"><path d="M 80 115 L 362.75 115 L 362.75 354.671875 L 80 354.671875 Z M 80 115 " clip-rule="nonzero"/></clipPath></defs><rect x="-37.5" width="450" fill="#ffffff" y="-37.499999" height="449.999989" fill-opacity="1"/><rect x="-37.5" width="450" fill="#152039" y="-37.499999" height="449.999989" fill-opacity="1"/><path fill="#ffe34f" d="M 230.890625 43.789062 C 223.453125 41.308594 215.675781 39.421875 207.601562 38.1875 C 169.398438 32.359375 132.449219 42.566406 103.59375 63.78125 C 74.738281 84.996094 53.976562 117.222656 48.148438 155.425781 C 47.125 162.136719 46.59375 168.757812 46.527344 175.257812 C 46.480469 179.964844 46.667969 184.609375 47.074219 189.183594 L 47.179688 189.175781 C 49.402344 189.085938 51.636719 189.203125 53.847656 189.539062 C 63.382812 190.996094 71.425781 196.179688 76.722656 203.378906 C 82.015625 210.582031 84.5625 219.800781 83.109375 229.339844 C 82.210938 235.222656 79.871094 240.554688 76.507812 245.035156 C 74.363281 247.890625 71.796875 250.386719 68.914062 252.449219 C 79.082031 268.183594 92.367188 281.855469 108.050781 292.480469 C 124.722656 303.773438 144.121094 311.632812 165.382812 314.878906 C 188.617188 318.421875 211.359375 316.046875 232.089844 308.882812 C 251.769531 302.078125 269.648438 290.96875 284.425781 276.523438 C 281.757812 273.515625 279.613281 270.066406 278.113281 266.320312 C 275.855469 260.707031 275.023438 254.445312 276 248.0625 C 277.453125 238.527344 282.632812 230.484375 289.835938 225.191406 C 297.039062 219.894531 306.261719 217.347656 315.792969 218.800781 C 317.109375 219.003906 318.410156 219.277344 319.679688 219.625 C 320.527344 217.003906 321.296875 214.34375 321.988281 211.648438 C 323.140625 207.1875 324.089844 202.519531 324.835938 197.640625 C 327.867188 177.796875 326.574219 158.304688 321.664062 140.121094 C 317.066406 123.109375 309.332031 107.246094 299.027344 93.304688 C 296.363281 95.085938 293.445312 96.5 290.367188 97.5 C 285.328125 99.128906 279.886719 99.648438 274.371094 98.808594 C 264.839844 97.351562 256.796875 92.171875 251.5 84.96875 C 246.207031 77.765625 243.660156 68.546875 245.113281 59.011719 C 245.5 56.464844 246.183594 53.976562 247.121094 51.566406 C 247.253906 51.230469 247.390625 50.890625 247.53125 50.558594 C 242.1875 47.964844 236.628906 45.699219 230.890625 43.789062 M 209.382812 26.523438 C 218.0625 27.847656 226.484375 29.898438 234.601562 32.605469 C 242.886719 35.363281 250.820312 38.808594 258.34375 42.855469 L 264.09375 45.945312 L 260.453125 51.335938 C 259.503906 52.746094 258.699219 54.257812 258.082031 55.851562 C 257.492188 57.359375 257.050781 59.007812 256.777344 60.789062 C 255.8125 67.105469 257.5 73.210938 261.007812 77.980469 C 264.515625 82.746094 269.839844 86.179688 276.15625 87.140625 C 279.867188 87.707031 283.476562 87.378906 286.757812 86.316406 C 290.195312 85.203125 293.324219 83.292969 295.894531 80.769531 L 300.507812 76.230469 L 304.582031 81.277344 C 317.742188 97.605469 327.515625 116.585938 333.042969 137.054688 C 338.375 156.796875 339.78125 177.933594 336.503906 199.417969 C 335.734375 204.457031 334.691406 209.507812 333.390625 214.554688 C 332.097656 219.574219 330.558594 224.484375 328.789062 229.269531 L 326.53125 235.382812 L 320.691406 232.535156 C 319.679688 232.039062 318.597656 231.613281 317.453125 231.253906 C 316.359375 230.914062 315.210938 230.648438 314.015625 230.464844 C 307.699219 229.5 301.59375 231.1875 296.824219 234.695312 C 292.058594 238.199219 288.625 243.523438 287.664062 249.839844 C 287.015625 254.09375 287.558594 258.234375 289.039062 261.925781 C 290.585938 265.769531 293.136719 269.144531 296.417969 271.671875 L 301.574219 275.640625 L 297.117188 280.378906 C 280.292969 298.273438 259.28125 311.941406 235.941406 320.007812 C 213.421875 327.789062 188.753906 330.375 163.605469 326.539062 C 140.597656 323.03125 119.570312 314.507812 101.480469 302.246094 C 82.6875 289.515625 67.074219 272.757812 55.683594 253.402344 L 52.390625 247.808594 L 58.28125 245.078125 C 61.75 243.472656 64.789062 241.027344 67.097656 237.957031 C 69.308594 235.019531 70.847656 231.488281 71.445312 227.558594 C 72.40625 221.242188 70.71875 215.136719 67.214844 210.371094 C 63.710938 205.601562 58.386719 202.167969 52.070312 201.207031 C 50.535156 200.972656 49.050781 200.890625 47.621094 200.945312 C 46.121094 201.007812 44.652344 201.210938 43.238281 201.542969 L 36.929688 203.039062 L 36.070312 196.582031 C 35.128906 189.5 34.675781 182.335938 34.75 175.136719 C 34.824219 167.992188 35.390625 160.8125 36.484375 153.640625 C 42.804688 112.222656 65.320312 77.28125 96.605469 54.273438 C 127.894531 31.273438 167.957031 20.203125 209.382812 26.523438 Z M 209.382812 26.523438 " fill-opacity="1" fill-rule="nonzero"/><path fill="#ffe34f" d="M 67.214844 210.371094 C 63.710938 205.601562 58.386719 202.167969 52.070312 201.207031 C 45.753906 200.242188 39.648438 201.929688 34.882812 205.4375 C 30.113281 208.941406 26.679688 214.269531 25.714844 220.582031 C 24.753906 226.894531 26.441406 233.003906 29.949219 237.769531 C 33.453125 242.539062 38.777344 245.972656 45.089844 246.933594 C 51.40625 247.894531 57.515625 246.210938 62.28125 242.703125 C 67.046875 239.199219 70.480469 233.875 71.445312 227.558594 C 72.40625 221.246094 70.71875 215.136719 67.214844 210.371094 M 53.847656 189.542969 C 63.382812 190.996094 71.425781 196.179688 76.722656 203.378906 C 82.015625 210.582031 84.5625 219.804688 83.109375 229.339844 C 81.65625 238.871094 76.472656 246.914062 69.269531 252.210938 C 62.066406 257.503906 52.847656 260.054688 43.3125 258.597656 C 33.777344 257.144531 25.738281 251.960938 20.441406 244.757812 C 15.144531 237.558594 12.597656 228.335938 14.054688 218.800781 C 15.507812 209.269531 20.691406 201.226562 27.890625 195.929688 C 35.09375 190.636719 44.316406 188.089844 53.847656 189.542969 Z M 53.847656 189.542969 " fill-opacity="1" fill-rule="nonzero"/><path fill="#ffe34f" d="M 298.277344 50.578125 C 294.769531 45.808594 289.445312 42.382812 283.128906 41.414062 C 276.816406 40.453125 270.707031 42.140625 265.941406 45.644531 C 261.171875 49.148438 257.742188 54.476562 256.777344 60.789062 C 255.8125 67.105469 257.5 73.210938 261.007812 77.980469 C 264.511719 82.746094 269.839844 86.179688 276.15625 87.140625 C 282.46875 88.105469 288.574219 86.417969 293.34375 82.910156 C 298.109375 79.40625 301.542969 74.082031 302.503906 67.765625 C 303.464844 61.453125 301.78125 55.347656 298.277344 50.578125 M 284.910156 29.753906 C 294.445312 31.207031 302.484375 36.386719 307.78125 43.589844 C 313.078125 50.792969 315.625 60.015625 314.167969 69.546875 C 312.714844 79.082031 307.53125 87.125 300.332031 92.417969 C 293.128906 97.714844 283.910156 100.261719 274.371094 98.808594 C 264.839844 97.351562 256.796875 92.171875 251.503906 84.96875 C 246.207031 77.765625 243.660156 68.546875 245.113281 59.011719 C 246.570312 49.476562 251.75 41.4375 258.953125 36.140625 C 266.15625 30.84375 275.378906 28.296875 284.910156 29.753906 Z M 284.910156 29.753906 " fill-opacity="1" fill-rule="nonzero"/><path fill="#ffe34f" d="M 329.160156 239.628906 C 325.652344 234.859375 320.328125 231.429688 314.015625 230.46875 C 307.699219 229.5 301.59375 231.1875 296.824219 234.695312 C 292.054688 238.203125 288.625 243.527344 287.664062 249.839844 C 286.699219 256.15625 288.386719 262.261719 291.890625 267.03125 C 295.398438 271.796875 300.722656 275.226562 307.039062 276.191406 C 313.351562 277.160156 319.457031 275.46875 324.226562 271.964844 C 328.996094 268.457031 332.425781 263.132812 333.386719 256.816406 C 334.355469 250.503906 332.667969 244.398438 329.160156 239.628906 M 315.796875 218.800781 C 325.328125 220.257812 333.371094 225.4375 338.664062 232.640625 C 343.960938 239.84375 346.511719 249.0625 345.054688 258.597656 C 343.597656 268.128906 338.417969 276.175781 331.214844 281.46875 C 324.015625 286.761719 314.792969 289.3125 305.257812 287.859375 C 295.722656 286.402344 287.683594 281.21875 282.386719 274.019531 C 277.089844 266.816406 274.542969 257.59375 276 248.0625 C 277.453125 238.527344 282.632812 230.484375 289.835938 225.191406 C 297.039062 219.894531 306.261719 217.347656 315.796875 218.800781 Z M 315.796875 218.800781 " fill-opacity="1" fill-rule="nonzero"/><g clip-path="url(#b95ac0bdcd)"><path fill="#ffe34f" d="M 290.207031 320.414062 C 272.96875 322.070312 255.152344 321.652344 237.105469 318.898438 C 128.488281 302.324219 52.796875 207.886719 68.042969 107.96875 C 73.140625 74.550781 87.777344 44.761719 109.046875 20.519531 C 92.820312 42.996094 81.660156 69.167969 77.277344 97.917969 C 61.378906 202.089844 140.292969 300.546875 253.53125 317.824219 C 265.894531 319.710938 278.152344 320.550781 290.207031 320.414062 " fill-opacity="1" fill-rule="evenodd"/></g><g clip-path="url(#2631608d0f)"><path fill="#ffe34f" d="M 337.621094 117.769531 C 346.070312 119.058594 354.328125 120.820312 362.390625 123 C 228.902344 103.425781 104.492188 195.304688 84.109375 328.859375 C 82.785156 337.574219 81.941406 346.25 81.542969 354.863281 C 80.328125 338.421875 80.925781 321.585938 83.515625 304.597656 C 102.09375 182.835938 215.859375 99.191406 337.621094 117.769531 " fill-opacity="1" fill-rule="evenodd"/></g><path fill="#ffe34f" d="M 157.675781 205.011719 C 199.863281 159.277344 261.167969 132.539062 326.578125 135.828125 C 325.777344 133.078125 324.894531 130.355469 323.933594 127.664062 C 258.488281 127.285156 197.960938 156.828125 157.675781 205.011719 " fill-opacity="1" fill-rule="evenodd"/></svg>