<svg xmlns="http://www.w3.org/2000/svg" xmlns:xlink="http://www.w3.org/1999/xlink" width="500" zoomAndPan="magnify" viewBox="0 0 375 374.999991" height="500" preserveAspectRatio="xMidYMid meet" version="1.0"><defs><g/><clipPath id="8e05737975"><path d="M 152 114.011719 L 218 114.011719 L 218 202 L 152 202 Z M 152 114.011719 " clip-rule="nonzero"/></clipPath><clipPath id="cbb4b1e20e"><path d="M 156 141 L 238.203125 141 L 238.203125 210.761719 L 156 210.761719 Z M 156 141 " clip-rule="nonzero"/></clipPath></defs><rect x="-37.5" width="450" fill="#ffffff" y="-37.499999" height="449.999989" fill-opacity="1"/><rect x="-37.5" width="450" fill="#1e2c4b" y="-37.499999" height="449.999989" fill-opacity="1"/><path fill="#35c6f4" d="M 200.03125 120.832031 C 197.882812 120.117188 195.636719 119.570312 193.304688 119.214844 C 182.269531 117.53125 171.597656 120.480469 163.261719 126.609375 C 154.929688 132.734375 148.933594 142.042969 147.25 153.078125 C 146.953125 155.015625 146.800781 156.929688 146.78125 158.804688 C 146.765625 160.164062 146.820312 161.507812 146.9375 162.828125 L 146.96875 162.824219 C 147.609375 162.800781 148.257812 162.832031 148.894531 162.929688 C 151.648438 163.351562 153.972656 164.847656 155.5 166.929688 C 157.03125 169.007812 157.765625 171.671875 157.347656 174.425781 C 157.085938 176.125 156.410156 177.664062 155.441406 178.957031 C 154.820312 179.785156 154.078125 180.503906 153.246094 181.101562 C 156.183594 185.644531 160.019531 189.59375 164.550781 192.664062 C 169.363281 195.925781 174.96875 198.195312 181.109375 199.132812 C 187.820312 200.15625 194.390625 199.46875 200.375 197.398438 C 206.058594 195.433594 211.222656 192.226562 215.492188 188.054688 C 214.722656 187.183594 214.101562 186.1875 213.667969 185.105469 C 213.015625 183.484375 212.777344 181.675781 213.058594 179.832031 C 213.476562 177.078125 214.972656 174.757812 217.054688 173.226562 C 219.132812 171.699219 221.796875 170.960938 224.550781 171.382812 C 224.933594 171.441406 225.308594 171.519531 225.675781 171.621094 C 225.917969 170.863281 226.140625 170.09375 226.339844 169.316406 C 226.671875 168.027344 226.949219 166.679688 227.164062 165.269531 C 228.039062 159.539062 227.664062 153.910156 226.246094 148.65625 C 224.917969 143.742188 222.6875 139.160156 219.707031 135.136719 C 218.9375 135.648438 218.097656 136.058594 217.207031 136.347656 C 215.753906 136.816406 214.179688 136.96875 212.585938 136.726562 C 209.835938 136.304688 207.511719 134.808594 205.980469 132.726562 C 204.453125 130.648438 203.71875 127.984375 204.136719 125.230469 C 204.25 124.496094 204.445312 123.777344 204.71875 123.082031 C 204.753906 122.984375 204.792969 122.886719 204.835938 122.789062 C 203.292969 122.039062 201.6875 121.386719 200.03125 120.832031 M 193.816406 115.847656 C 196.324219 116.230469 198.757812 116.820312 201.101562 117.605469 C 203.496094 118.402344 205.785156 119.394531 207.957031 120.5625 L 209.621094 121.457031 L 208.566406 123.011719 C 208.292969 123.421875 208.0625 123.855469 207.882812 124.316406 C 207.710938 124.753906 207.585938 125.230469 207.507812 125.746094 C 207.226562 127.566406 207.714844 129.332031 208.726562 130.710938 C 209.742188 132.085938 211.277344 133.078125 213.101562 133.355469 C 214.175781 133.519531 215.21875 133.425781 216.164062 133.117188 C 217.160156 132.796875 218.0625 132.246094 218.804688 131.515625 L 220.136719 130.203125 L 221.3125 131.660156 C 225.113281 136.378906 227.9375 141.859375 229.53125 147.773438 C 231.074219 153.472656 231.480469 159.578125 230.535156 165.785156 C 230.3125 167.238281 230.007812 168.699219 229.632812 170.15625 C 229.261719 171.605469 228.816406 173.023438 228.304688 174.40625 L 227.652344 176.171875 L 225.964844 175.347656 C 225.671875 175.207031 225.359375 175.082031 225.03125 174.980469 C 224.714844 174.878906 224.382812 174.804688 224.039062 174.75 C 222.214844 174.472656 220.449219 174.960938 219.074219 175.972656 C 217.695312 176.984375 216.703125 178.523438 216.425781 180.347656 C 216.238281 181.574219 216.394531 182.769531 216.824219 183.835938 C 217.269531 184.949219 218.007812 185.921875 218.957031 186.652344 L 220.445312 187.796875 L 219.15625 189.167969 C 214.296875 194.335938 208.230469 198.28125 201.488281 200.613281 C 194.984375 202.859375 187.859375 203.609375 180.59375 202.5 C 173.949219 201.484375 167.878906 199.023438 162.652344 195.484375 C 157.226562 191.808594 152.714844 186.964844 149.425781 181.375 L 148.472656 179.761719 L 150.175781 178.972656 C 151.175781 178.507812 152.054688 177.800781 152.722656 176.914062 C 153.359375 176.066406 153.804688 175.046875 153.976562 173.910156 C 154.253906 172.085938 153.769531 170.324219 152.753906 168.945312 C 151.742188 167.570312 150.207031 166.578125 148.382812 166.300781 C 147.9375 166.234375 147.507812 166.207031 147.097656 166.226562 C 146.664062 166.242188 146.238281 166.300781 145.832031 166.398438 L 144.007812 166.828125 L 143.761719 164.964844 C 143.488281 162.917969 143.359375 160.851562 143.378906 158.769531 C 143.398438 156.707031 143.5625 154.632812 143.878906 152.5625 C 145.707031 140.597656 152.207031 130.507812 161.242188 123.863281 C 170.28125 117.21875 181.851562 114.023438 193.816406 115.847656 Z M 193.816406 115.847656 " fill-opacity="1" fill-rule="nonzero"/><path fill="#35c6f4" d="M 152.753906 168.945312 C 151.742188 167.570312 150.207031 166.578125 148.382812 166.300781 C 146.558594 166.023438 144.792969 166.507812 143.417969 167.523438 C 142.039062 168.535156 141.046875 170.074219 140.769531 171.894531 C 140.492188 173.71875 140.980469 175.484375 141.992188 176.859375 C 143.003906 178.238281 144.542969 179.230469 146.367188 179.507812 C 148.191406 179.785156 149.953125 179.296875 151.332031 178.285156 C 152.707031 177.273438 153.699219 175.734375 153.976562 173.910156 C 154.253906 172.085938 153.769531 170.324219 152.753906 168.945312 M 148.894531 162.929688 C 151.648438 163.351562 153.972656 164.847656 155.5 166.929688 C 157.03125 169.007812 157.765625 171.671875 157.347656 174.425781 C 156.925781 177.179688 155.429688 179.5 153.347656 181.03125 C 151.269531 182.558594 148.605469 183.296875 145.851562 182.875 C 143.097656 182.457031 140.777344 180.960938 139.246094 178.878906 C 137.71875 176.800781 136.980469 174.136719 137.402344 171.382812 C 137.820312 168.628906 139.320312 166.304688 141.398438 164.777344 C 143.476562 163.246094 146.140625 162.511719 148.894531 162.929688 Z M 148.894531 162.929688 " fill-opacity="1" fill-rule="nonzero"/><path fill="#35c6f4" d="M 219.492188 122.792969 C 218.480469 121.417969 216.941406 120.425781 215.117188 120.148438 C 213.292969 119.871094 211.53125 120.355469 210.152344 121.371094 C 208.777344 122.382812 207.785156 123.921875 207.507812 125.746094 C 207.226562 127.566406 207.714844 129.332031 208.726562 130.710938 C 209.742188 132.085938 211.277344 133.078125 213.101562 133.355469 C 214.925781 133.632812 216.691406 133.144531 218.066406 132.132812 C 219.445312 131.121094 220.433594 129.582031 220.714844 127.757812 C 220.992188 125.9375 220.503906 124.171875 219.492188 122.792969 M 215.632812 116.78125 C 218.386719 117.199219 220.707031 118.695312 222.238281 120.777344 C 223.765625 122.855469 224.503906 125.519531 224.082031 128.273438 C 223.664062 131.027344 222.164062 133.351562 220.085938 134.878906 C 218.003906 136.410156 215.34375 137.144531 212.589844 136.726562 C 209.835938 136.304688 207.511719 134.808594 205.984375 132.726562 C 204.453125 130.648438 203.71875 127.984375 204.136719 125.230469 C 204.558594 122.476562 206.054688 120.15625 208.132812 118.625 C 210.214844 117.09375 212.878906 116.359375 215.632812 116.78125 Z M 215.632812 116.78125 " fill-opacity="1" fill-rule="nonzero"/><path fill="#35c6f4" d="M 228.410156 177.398438 C 227.398438 176.019531 225.863281 175.027344 224.039062 174.75 C 222.214844 174.472656 220.449219 174.960938 219.074219 175.972656 C 217.695312 176.984375 216.703125 178.523438 216.425781 180.347656 C 216.148438 182.171875 216.636719 183.933594 217.648438 185.3125 C 218.660156 186.6875 220.199219 187.679688 222.023438 187.957031 C 223.847656 188.238281 225.609375 187.75 226.988281 186.738281 C 228.363281 185.722656 229.355469 184.1875 229.632812 182.363281 C 229.914062 180.539062 229.425781 178.773438 228.410156 177.398438 M 224.550781 171.382812 C 227.304688 171.800781 229.628906 173.300781 231.15625 175.378906 C 232.6875 177.460938 233.421875 180.121094 233.003906 182.875 C 232.582031 185.628906 231.085938 187.953125 229.007812 189.480469 C 226.925781 191.011719 224.261719 191.746094 221.507812 191.328125 C 218.753906 190.90625 216.433594 189.410156 214.902344 187.332031 C 213.375 185.25 212.636719 182.585938 213.058594 179.832031 C 213.476562 177.078125 214.972656 174.757812 217.054688 173.226562 C 219.136719 171.699219 221.796875 170.960938 224.550781 171.382812 Z M 224.550781 171.382812 " fill-opacity="1" fill-rule="nonzero"/><g clip-path="url(#8e05737975)"><path fill="#35c6f4" d="M 217.160156 200.730469 C 212.183594 201.207031 207.035156 201.089844 201.824219 200.292969 C 170.453125 195.507812 148.589844 168.230469 152.996094 139.371094 C 154.46875 129.71875 158.695312 121.113281 164.839844 114.113281 C 160.152344 120.605469 156.929688 128.164062 155.660156 136.46875 C 151.070312 166.554688 173.863281 194.992188 206.570312 199.980469 C 210.140625 200.527344 213.679688 200.769531 217.160156 200.730469 " fill-opacity="1" fill-rule="evenodd"/></g><g clip-path="url(#cbb4b1e20e)"><path fill="#35c6f4" d="M 230.855469 142.199219 C 233.296875 142.574219 235.679688 143.082031 238.011719 143.710938 C 199.453125 138.058594 163.523438 164.597656 157.636719 203.167969 C 157.253906 205.6875 157.007812 208.191406 156.894531 210.679688 C 156.542969 205.929688 156.714844 201.070312 157.464844 196.160156 C 162.828125 160.996094 195.6875 136.835938 230.855469 142.199219 " fill-opacity="1" fill-rule="evenodd"/></g><path fill="#35c6f4" d="M 178.882812 167.398438 C 191.066406 154.191406 208.773438 146.46875 227.667969 147.417969 C 227.433594 146.621094 227.179688 145.835938 226.902344 145.058594 C 208 144.949219 190.519531 153.480469 178.882812 167.398438 " fill-opacity="1" fill-rule="evenodd"/><g fill="#ffffff" fill-opacity="1"><g transform="translate(114.64418, 240.710609)"><g><path d="M 5.609375 0 L 2.765625 0 C 2.367188 0 2.171875 -0.195312 2.171875 -0.59375 L 2.171875 -21.40625 C 2.171875 -21.800781 2.367188 -22 2.765625 -22 L 5.609375 -22 C 6.003906 -22 6.203125 -21.800781 6.203125 -21.40625 L 6.203125 -0.59375 C 6.203125 -0.195312 6.003906 0 5.609375 0 Z M 5.609375 0 "/></g></g></g><g fill="#ffffff" fill-opacity="1"><g transform="translate(125.663583, 240.710609)"><g><path d="M 5.546875 0 L 2.796875 0 C 2.398438 0 2.203125 -0.195312 2.203125 -0.59375 L 2.203125 -21.5 C 2.203125 -22.019531 2.347656 -22.335938 2.640625 -22.453125 C 2.929688 -22.566406 3.265625 -22.4375 3.640625 -22.0625 L 16.1875 -9.03125 L 16.1875 -21.40625 C 16.1875 -21.800781 16.378906 -22 16.765625 -22 L 19.53125 -22 C 19.925781 -22 20.125 -21.800781 20.125 -21.40625 L 20.125 -0.515625 C 20.125 0.00390625 19.96875 0.316406 19.65625 0.421875 C 19.351562 0.535156 19.003906 0.394531 18.609375 0 L 6.125 -13.296875 L 6.125 -0.59375 C 6.125 -0.195312 5.929688 0 5.546875 0 Z M 5.546875 0 "/></g></g></g><g fill="#ffffff" fill-opacity="1"><g transform="translate(150.647973, 240.710609)"><g><path d="M 8.484375 -6.125 L 1.359375 -6.125 C 0.960938 -6.125 0.765625 -6.320312 0.765625 -6.71875 L 0.765625 -8.484375 C 0.765625 -8.867188 0.960938 -9.0625 1.359375 -9.0625 L 8.484375 -9.0625 C 8.878906 -9.0625 9.078125 -8.867188 9.078125 -8.484375 L 9.078125 -6.71875 C 9.078125 -6.320312 8.878906 -6.125 8.484375 -6.125 Z M 8.484375 -6.125 "/></g></g></g><g fill="#ffffff" fill-opacity="1"><g transform="translate(163.142645, 240.710609)"><g><path d="M 8.59375 0.515625 C 7.539062 0.515625 6.457031 0.410156 5.34375 0.203125 C 4.238281 -0.00390625 3.003906 -0.375 1.640625 -0.90625 C 1.285156 -1.070312 1.175781 -1.332031 1.3125 -1.6875 L 2.203125 -4.0625 C 2.347656 -4.40625 2.609375 -4.5 2.984375 -4.34375 C 4.035156 -3.84375 5.023438 -3.492188 5.953125 -3.296875 C 6.890625 -3.097656 7.734375 -3 8.484375 -3 C 9.535156 -3 10.378906 -3.203125 11.015625 -3.609375 C 11.660156 -4.015625 11.984375 -4.625 11.984375 -5.4375 C 11.984375 -5.925781 11.835938 -6.363281 11.546875 -6.75 C 11.253906 -7.132812 10.859375 -7.492188 10.359375 -7.828125 C 9.867188 -8.171875 9.3125 -8.507812 8.6875 -8.84375 C 8.0625 -9.175781 7.410156 -9.519531 6.734375 -9.875 C 6.066406 -10.238281 5.421875 -10.628906 4.796875 -11.046875 C 4.179688 -11.460938 3.628906 -11.925781 3.140625 -12.4375 C 2.648438 -12.945312 2.257812 -13.535156 1.96875 -14.203125 C 1.6875 -14.878906 1.546875 -15.660156 1.546875 -16.546875 C 1.546875 -17.597656 1.738281 -18.5 2.125 -19.25 C 2.507812 -20.007812 3.035156 -20.628906 3.703125 -21.109375 C 4.367188 -21.585938 5.125 -21.941406 5.96875 -22.171875 C 6.8125 -22.398438 7.695312 -22.515625 8.625 -22.515625 C 9.488281 -22.515625 10.429688 -22.40625 11.453125 -22.1875 C 12.484375 -21.976562 13.492188 -21.691406 14.484375 -21.328125 C 14.835938 -21.179688 14.941406 -20.925781 14.796875 -20.5625 L 14.03125 -18.28125 C 13.882812 -17.925781 13.632812 -17.816406 13.28125 -17.953125 C 12.507812 -18.273438 11.726562 -18.523438 10.9375 -18.703125 C 10.144531 -18.890625 9.394531 -18.984375 8.6875 -18.984375 C 8.125 -18.984375 7.609375 -18.910156 7.140625 -18.765625 C 6.671875 -18.628906 6.296875 -18.398438 6.015625 -18.078125 C 5.742188 -17.765625 5.609375 -17.347656 5.609375 -16.828125 C 5.609375 -16.347656 5.726562 -15.921875 5.96875 -15.546875 C 6.21875 -15.171875 6.554688 -14.820312 6.984375 -14.5 C 7.410156 -14.175781 7.898438 -13.863281 8.453125 -13.5625 C 9.015625 -13.269531 9.609375 -12.96875 10.234375 -12.65625 C 10.921875 -12.289062 11.609375 -11.898438 12.296875 -11.484375 C 12.984375 -11.078125 13.609375 -10.601562 14.171875 -10.0625 C 14.742188 -9.519531 15.203125 -8.890625 15.546875 -8.171875 C 15.890625 -7.453125 16.0625 -6.609375 16.0625 -5.640625 C 16.0625 -4.554688 15.851562 -3.625 15.4375 -2.84375 C 15.03125 -2.0625 14.472656 -1.421875 13.765625 -0.921875 C 13.066406 -0.429688 12.269531 -0.0703125 11.375 0.15625 C 10.476562 0.394531 9.550781 0.515625 8.59375 0.515625 Z M 8.59375 0.515625 "/></g></g></g><g fill="#ffffff" fill-opacity="1"><g transform="translate(183.013707, 240.710609)"><g><path d="M 5.609375 0 L 2.765625 0 C 2.367188 0 2.171875 -0.195312 2.171875 -0.59375 L 2.171875 -21.40625 C 2.171875 -21.800781 2.367188 -22 2.765625 -22 L 5.609375 -22 C 6.003906 -22 6.203125 -21.800781 6.203125 -21.40625 L 6.203125 -0.59375 C 6.203125 -0.195312 6.003906 0 5.609375 0 Z M 5.609375 0 "/></g></g></g><g fill="#ffffff" fill-opacity="1"><g transform="translate(194.033112, 240.710609)"><g><path d="M 12.890625 0.515625 C 11.554688 0.515625 10.296875 0.335938 9.109375 -0.015625 C 7.929688 -0.378906 6.863281 -0.894531 5.90625 -1.5625 C 4.945312 -2.226562 4.117188 -3.035156 3.421875 -3.984375 C 2.734375 -4.929688 2.203125 -5.992188 1.828125 -7.171875 C 1.453125 -8.347656 1.265625 -9.625 1.265625 -11 C 1.265625 -12.375 1.453125 -13.648438 1.828125 -14.828125 C 2.203125 -16.003906 2.734375 -17.066406 3.421875 -18.015625 C 4.117188 -18.960938 4.945312 -19.769531 5.90625 -20.4375 C 6.863281 -21.101562 7.929688 -21.613281 9.109375 -21.96875 C 10.296875 -22.332031 11.554688 -22.515625 12.890625 -22.515625 C 14.660156 -22.515625 16.285156 -22.195312 17.765625 -21.5625 C 19.242188 -20.9375 20.5 -20.066406 21.53125 -18.953125 C 21.800781 -18.671875 21.773438 -18.398438 21.453125 -18.140625 L 19.125 -16.515625 C 18.851562 -16.285156 18.582031 -16.300781 18.3125 -16.5625 C 17.644531 -17.238281 16.847656 -17.773438 15.921875 -18.171875 C 14.992188 -18.578125 13.984375 -18.78125 12.890625 -18.78125 C 11.804688 -18.78125 10.800781 -18.59375 9.875 -18.21875 C 8.957031 -17.851562 8.15625 -17.328125 7.46875 -16.640625 C 6.78125 -15.953125 6.242188 -15.132812 5.859375 -14.1875 C 5.484375 -13.238281 5.296875 -12.175781 5.296875 -11 C 5.296875 -9.8125 5.484375 -8.726562 5.859375 -7.75 C 6.242188 -6.78125 6.78125 -5.945312 7.46875 -5.25 C 8.15625 -4.550781 8.957031 -4.015625 9.875 -3.640625 C 10.800781 -3.265625 11.804688 -3.078125 12.890625 -3.078125 C 13.953125 -3.078125 14.9375 -3.265625 15.84375 -3.640625 C 16.75 -4.015625 17.535156 -4.523438 18.203125 -5.171875 L 18.203125 -7.25 L 13.421875 -7.25 C 13.023438 -7.25 12.828125 -7.441406 12.828125 -7.828125 L 12.828125 -10.0625 C 12.828125 -10.457031 13.023438 -10.65625 13.421875 -10.65625 L 21.34375 -10.65625 C 21.726562 -10.65625 21.921875 -10.457031 21.921875 -10.0625 L 21.921875 -3.890625 C 21.921875 -3.628906 21.835938 -3.40625 21.671875 -3.21875 C 20.660156 -2.039062 19.398438 -1.125 17.890625 -0.46875 C 16.378906 0.1875 14.710938 0.515625 12.890625 0.515625 Z M 12.890625 0.515625 "/></g></g></g><g fill="#ffffff" fill-opacity="1"><g transform="translate(220.106051, 240.710609)"><g><path d="M 5.609375 0 L 2.765625 0 C 2.367188 0 2.171875 -0.195312 2.171875 -0.59375 L 2.171875 -21.40625 C 2.171875 -21.800781 2.367188 -22 2.765625 -22 L 5.609375 -22 C 6.003906 -22 6.203125 -21.800781 6.203125 -21.40625 L 6.203125 -10.734375 L 15.71875 -10.734375 L 15.71875 -21.40625 C 15.71875 -21.800781 15.914062 -22 16.3125 -22 L 19.15625 -22 C 19.550781 -22 19.75 -21.800781 19.75 -21.40625 L 19.75 -0.59375 C 19.75 -0.195312 19.550781 0 19.15625 0 L 16.3125 0 C 15.914062 0 15.71875 -0.195312 15.71875 -0.59375 L 15.71875 -7.171875 L 6.203125 -7.171875 L 6.203125 -0.59375 C 6.203125 -0.195312 6.003906 0 5.609375 0 Z M 5.609375 0 "/></g></g></g><g fill="#ffffff" fill-opacity="1"><g transform="translate(244.689391, 240.710609)"><g><path d="M 9.25 0 L 6.375 0 C 5.976562 0 5.78125 -0.195312 5.78125 -0.59375 L 5.78125 -18.4375 L 1.03125 -18.4375 C 0.632812 -18.4375 0.4375 -18.628906 0.4375 -19.015625 L 0.4375 -21.40625 C 0.4375 -21.800781 0.632812 -22 1.03125 -22 L 14.609375 -22 C 14.992188 -22 15.1875 -21.800781 15.1875 -21.40625 L 15.1875 -19.015625 C 15.1875 -18.628906 14.992188 -18.4375 14.609375 -18.4375 L 9.84375 -18.4375 L 9.84375 -0.59375 C 9.84375 -0.195312 9.644531 0 9.25 0 Z M 9.25 0 "/></g></g></g></svg>